<svg xmlns="http://www.w3.org/2000/svg" viewBox="0 0 120 120" role="img" aria-label="فكرة ٢: المحل المتصل">
  <rect width="120" height="120" rx="28" fill="#0E7C86"/>
  <path d="M22 44 L30 28 H90 L98 44 Z" fill="#F6F8FB"/>
  <path d="M22 44 a9.5 9 0 0 0 19 0 a9.5 9 0 0 0 19 0 a9.5 9 0 0 0 19 0 a9.5 9 0 0 0 19 0 Z" fill="#E8A33D"/>
  <rect x="28" y="54" width="64" height="40" rx="6" fill="#F6F8FB"/>
  <rect x="52" y="66" width="16" height="28" rx="3" fill="#12253B"/>
  <path d="M82 18 a14 14 0 0 1 14 14" fill="none" stroke="#F6F8FB" stroke-width="5" stroke-linecap="round"/>
  <path d="M82 8 a24 24 0 0 1 24 24" fill="none" stroke="#F6F8FB" stroke-width="5" stroke-linecap="round" opacity=".6"/>
</svg>
